<svg width="25" height="38" viewBox="0 0 25 38" fill="none" xmlns="http://www.w3.org/2000/svg">
<path d="M24.2175 4.24827C23.8932 3.75163 23.4194 3.73736 22.8795 3.72111C22.8183 3.71927 22.7563 3.7174 22.6936 3.7148C22.6458 3.7126 22.5931 3.71345 22.538 3.71434C22.319 3.71785 22.0629 3.72197 21.9339 3.53799C21.7843 3.3247 21.7985 2.91251 21.8102 2.57222C21.8139 2.4647 21.8173 2.36429 21.8153 2.27967C21.7943 1.48919 21.7504 0.649502 21.4453 0.368794C21.2152 0.158184 20.5268 0.187361 19.892 0.214269C19.6862 0.222992 19.486 0.231477 19.3089 0.231477H5.79596C5.52389 0.231477 5.23869 0.209323 4.95847 0.187555C4.41245 0.14514 3.88533 0.104193 3.511 0.231477C2.96775 0.417105 2.93096 1.39254 2.89633 2.31106L2.89446 2.36048C2.86538 3.11876 2.67746 3.70387 2.05465 3.64493C1.33029 3.57749 0.609497 3.55622 0.281987 4.21181C-0.10481 4.98749 -0.0250374 5.79945 0.117847 7.2538C0.138258 7.46154 0.159956 7.6824 0.181766 7.91813H24.4264C24.4403 7.74583 24.455 7.57574 24.4696 7.4084C24.5831 6.09994 24.682 4.95989 24.2175 4.24827Z" fill="#8047F8"/>
<path fill-rule="evenodd" clip-rule="evenodd" d="M2.06987 9.36055C2.44852 14.4853 2.82304 19.616 3.19757 24.7467L3.1978 24.7499C3.40115 27.5357 3.60451 30.3215 3.80853 33.1065H4.58212C4.63483 33.5424 4.69515 34.0806 4.75874 34.648C4.88783 35.7998 5.03044 37.0723 5.15034 37.8542H5.2359C6.02387 37.5659 11.4712 35.2375 11.4736 25.9677C11.4726 25.9412 11.4735 25.9148 11.4762 25.8886H10.1304C10.0653 25.888 10.0021 25.8662 9.9507 25.8267C9.89927 25.7871 9.86241 25.732 9.84577 25.6697C9.71463 25.3457 9.60888 25.0123 9.52948 24.6723C8.73777 25.1194 8.10906 25.8022 7.73296 26.6233C7.37594 25.7824 7.32921 24.8441 7.60093 23.9726C7.87266 23.101 8.44556 22.3515 9.21952 21.8552C9.22949 19.1502 10.2423 16.5427 12.0661 14.5262L12.0946 14.5012C12.1476 14.4554 12.2155 14.4299 12.2859 14.4293C12.3266 14.4297 12.3668 14.4383 12.4039 14.4548C12.4415 14.4715 12.4751 14.4959 12.5026 14.5262C14.3478 16.5454 15.3552 19.178 15.3239 21.8989C16.1123 22.3815 16.6969 23.1304 16.9691 24.0067C17.2413 24.883 17.1827 25.8272 16.8042 26.664C16.4301 25.8416 15.8008 25.1582 15.0076 24.7129C14.9592 25.0425 14.8699 25.3648 14.7419 25.6728C14.6977 25.8042 14.6091 25.8886 14.5205 25.8886H13.0853C13.0876 25.9043 13.0892 25.9201 13.0901 25.9359L13.0907 25.9396V25.9472C13.0912 25.9609 13.0912 25.9746 13.0907 25.9883C13.1104 35.5242 18.902 37.6887 19.3902 37.8542H19.5572C19.5998 37.1031 19.7386 36.0667 19.8739 35.0563C19.9671 34.36 20.0587 33.6761 20.116 33.1065H20.8985C21.149 29.5985 21.4066 26.1004 21.6642 22.6023L21.6644 22.6004L21.6645 22.5993C21.994 18.1248 22.3235 13.6501 22.6381 9.15457H2.11998C2.06092 9.16612 2.06495 9.26272 2.06987 9.36055ZM12.2859 14.4293L12.2844 14.4293H12.2875L12.2859 14.4293Z" fill="#8047F8"/>
</svg>
